<svg height="542" width="720" xmlns="http://www.w3.org/2000/svg">
<rect height="542" fill="#555" width="720"></rect>
<text fill="#7f7" font-family="Courier New" font-size="12" xml:space="preserve">
<tspan x="10" y="26">2 megabytes installed</tspan>
<tspan x="10" y="42"></tspan>
<tspan x="10" y="58">node_modules</tspan>
<tspan x="10" y="74">└─┬ demeteorizer@4.3.0 </tspan>
<tspan x="10" y="90">  ├─┬ commander@2.9.0 </tspan>
<tspan x="10" y="106">  │ └── graceful-readlink@1.0.1 </tspan>
<tspan x="10" y="122">  ├─┬ cross-spawn@5.0.1 </tspan>
<tspan x="10" y="138">  │ ├─┬ lru-cache@4.0.2 </tspan>
<tspan x="10" y="154">  │ │ ├── pseudomap@1.0.2 </tspan>
<tspan x="10" y="170">  │ │ └── yallist@2.1.2 </tspan>
<tspan x="10" y="186">  │ ├─┬ shebang-command@1.2.0 </tspan>
<tspan x="10" y="202">  │ │ └── shebang-regex@1.0.0 </tspan>
<tspan x="10" y="218">  │ └─┬ which@1.2.14 </tspan>
<tspan x="10" y="234">  │   └── isexe@2.0.0 </tspan>
<tspan x="10" y="250">  ├─┬ fs-extra@0.30.0 </tspan>
<tspan x="10" y="266">  │ ├── graceful-fs@4.1.11 </tspan>
<tspan x="10" y="282">  │ ├── jsonfile@2.4.0 </tspan>
<tspan x="10" y="298">  │ ├── klaw@1.3.1 </tspan>
<tspan x="10" y="314">  │ ├── path-is-absolute@1.0.1 </tspan>
<tspan x="10" y="330">  │ └─┬ rimraf@2.6.1 </tspan>
<tspan x="10" y="346">  │   └─┬ glob@7.1.1 </tspan>
<tspan x="10" y="362">  │     ├── fs.realpath@1.0.0 </tspan>
<tspan x="10" y="378">  │     ├─┬ inflight@1.0.6 </tspan>
<tspan x="10" y="394">  │     │ └── wrappy@1.0.2 </tspan>
<tspan x="10" y="410">  │     ├── inherits@2.0.3 </tspan>
<tspan x="10" y="426">  │     ├─┬ minimatch@3.0.3 </tspan>
<tspan x="10" y="442">  │     │ └─┬ brace-expansion@1.1.7 </tspan>
<tspan x="10" y="458">  │     │   ├── balanced-match@0.4.2 </tspan>
<tspan x="10" y="474">  │     │   └── concat-map@0.0.1 </tspan>
<tspan x="10" y="490">  │     └── once@1.4.0 </tspan>
<tspan x="10" y="506">  ├── hoek@4.1.1 </tspan>
<tspan x="10" y="522">  └── semver@5.1.0</tspan>
</text>
</svg>
